<svg width="20" height="20" viewBox="0 0 20 20" fill="none" xmlns="http://www.w3.org/2000/svg">
<path fill-rule="evenodd" clip-rule="evenodd" d="M13.6363 7.27275C13.6363 9.28102 12.0082 10.9091 9.99995 10.9091C7.99164 10.9091 6.36359 9.28102 6.36359 7.27275C6.36359 5.26444 7.99164 3.63638 9.99995 3.63638C12.0082 3.63638 13.6363 5.26444 13.6363 7.27275ZM11.8181 7.27275C11.8181 8.27693 11.0041 9.09093 9.99995 9.09093C8.99577 9.09093 8.18177 8.27693 8.18177 7.27275C8.18177 6.26859 8.99577 5.45456 9.99995 5.45456C11.0041 5.45456 11.8181 6.26859 11.8181 7.27275Z" fill="white"/>
<path fill-rule="evenodd" clip-rule="evenodd" d="M10 0C4.47715 0 0 4.47715 0 10C0 15.5228 4.47715 20 10 20C15.5228 20 20 15.5228 20 10C20 4.47715 15.5228 0 10 0ZM1.81818 10C1.81818 11.9002 2.46595 13.6491 3.55271 15.0379C5.04768 13.0808 7.4057 11.8182 10.0586 11.8182C12.6771 11.8182 15.0084 13.0483 16.5059 14.9621C17.5573 13.5857 18.1818 11.8658 18.1818 10C18.1818 5.48131 14.5187 1.81818 10 1.81818C5.48131 1.81818 1.81818 5.48131 1.81818 10ZM10 18.1818C8.04525 18.1818 6.25059 17.4963 4.84334 16.3525C5.99411 14.7102 7.90096 13.6364 10.0586 13.6364C12.1895 13.6364 14.0757 14.6837 15.2307 16.2917C13.8126 17.4719 11.9892 18.1818 10 18.1818Z" fill="white"/>
</svg>
