<svg width="21" height="21" viewBox="0 0 21 21" fill="none" xmlns="http://www.w3.org/2000/svg">
<path d="M20.2825 16.7875L16.735 13.2401L14.0064 12.1128C14.915 10.8208 15.4017 9.27945 15.4 7.69998C15.4 3.45419 11.9458 0 7.69998 0C3.45419 0 0 3.45419 0 7.69998C0 11.9458 3.45419 15.4 7.69998 15.4C9.29319 15.4018 10.8473 14.9066 12.1458 13.9835L13.2702 16.7047L16.8175 20.2523C17.045 20.4798 17.315 20.6603 17.6123 20.7834C17.9095 20.9066 18.2281 20.97 18.5499 20.97C18.8716 20.97 19.1902 20.9066 19.4875 20.7835C19.7847 20.6604 20.0548 20.4799 20.2823 20.2524C20.5099 20.0249 20.6903 19.7548 20.8135 19.4576C20.9366 19.1603 21 18.8417 21 18.52C21 18.1983 20.9366 17.8797 20.8135 17.5824C20.6904 17.2851 20.51 17.0151 20.2825 16.7875ZM1.4 7.69998C1.4 4.22624 4.22624 1.4 7.69998 1.4C11.1737 1.4 14 4.22624 14 7.69998C14 11.1737 11.1737 14 7.69998 14C4.22624 14 1.4 11.1737 1.4 7.69998ZM19.2924 19.2624C19.0954 19.459 18.8283 19.5694 18.55 19.5694C18.2716 19.5694 18.0046 19.459 17.8075 19.2624L14.4575 15.9124L13.4121 13.3821L15.9425 14.4274L19.2925 17.7775C19.4891 17.9745 19.5995 18.2416 19.5995 18.5199C19.5995 18.7983 19.4891 19.0653 19.2924 19.2624Z" fill="#9E9E9E"/>
</svg>
