<svg width="20" height="20" viewBox="0 0 20 20" fill="none" xmlns="http://www.w3.org/2000/svg">
<path d="M7.63839 18.5185C7.63839 18.8115 7.55694 19.098 7.40433 19.3416C7.25173 19.5852 7.03483 19.7751 6.78106 19.8872C6.52729 19.9994 6.24805 20.0287 5.97865 19.9715C5.70925 19.9144 5.46179 19.7733 5.26756 19.5661C5.07334 19.3589 4.94107 19.0949 4.88748 18.8075C4.83389 18.5202 4.86139 18.2223 4.96651 17.9516C5.07162 17.6809 5.24963 17.4495 5.47802 17.2867C5.7064 17.1239 5.97491 17.037 6.24959 17.037C6.61792 17.037 6.97117 17.1931 7.23162 17.471C7.49206 17.7488 7.63839 18.1256 7.63839 18.5185ZM16.6656 17.037C16.3909 17.037 16.1224 17.1239 15.894 17.2867C15.6656 17.4495 15.4876 17.6809 15.3825 17.9516C15.2774 18.2223 15.2499 18.5202 15.3035 18.8075C15.357 19.0949 15.4893 19.3589 15.6835 19.5661C15.8778 19.7733 16.1252 19.9144 16.3946 19.9715C16.664 20.0287 16.9433 19.9994 17.197 19.8872C17.4508 19.7751 17.6677 19.5852 17.8203 19.3416C17.9729 19.098 18.0544 18.8115 18.0544 18.5185C18.0544 18.1256 17.908 17.7488 17.6476 17.471C17.3872 17.1931 17.0339 17.037 16.6656 17.037ZM19.9776 5.45008L18.4635 14.3389C18.4054 14.6804 18.2368 14.9892 17.9871 15.2116C17.7374 15.434 17.4223 15.5557 17.097 15.5556H5.82585C5.5007 15.5557 5.18584 15.434 4.93616 15.2118C4.68648 14.9897 4.51782 14.6811 4.4596 14.3398L2.80023 4.63266C2.79139 4.59662 2.7851 4.55993 2.78141 4.52289L2.26154 1.48148H0.694399C0.510233 1.48148 0.33361 1.40344 0.203385 1.26452C0.0731597 1.12561 0 0.937197 0 0.740741C0 0.544284 0.0731597 0.355874 0.203385 0.216958C0.33361 0.0780421 0.510233 6.98604e-08 0.694399 6.98604e-08H2.26146C2.58661 -0.000106418 2.90149 0.12153 3.15118 0.343702C3.40088 0.565874 3.56955 0.874486 3.62779 1.21573L4.05315 3.7037H18.6112C18.8146 3.7037 19.0155 3.75136 19.1998 3.84332C19.384 3.93528 19.5471 4.06929 19.6774 4.23588C19.8078 4.40246 19.9022 4.59756 19.9541 4.80737C20.006 5.01718 20.014 5.23659 19.9776 5.45008H19.9776ZM18.6112 5.18518H4.30634L5.82585 14.0741H17.097L18.6112 5.18518Z" fill="white"/>
</svg>
